# xmcd
#
# Track frame offsets:
#	183
#	21523
#	40368
#	63920
#	88965
#	103530
#	114603
#	140005
#	158583
#	187418
#	212393
#	238788
#
# Disc length: 3421 seconds
#
# Revision: 5
# Processed by: cddbd v1.5.2PL0 Copyright (c) Steve Scherf et al.
# Submitted via: EZCDAudioConverter 1.3.1.1
#
DISCID=ae0d5b0c
DTITLE=Eric Clapton - Journeyman
DYEAR=1989
DGENRE=Blues Rock
TTITLE0=Pretending
TTITLE1=Anything For Your Love
TTITLE2=Bad Love
TTITLE3=Running On Faith
TTITLE4=Hard Times
TTITLE5=Hound Dog
TTITLE6=No Alibis
TTITLE7=Run So Far
TTITLE8=Old Love
TTITLE9=Breaking Point
TTITLE10=Lead Me On
TTITLE11=Before You Accuse Me
EXTD=
EXTT0=
EXTT1=
EXTT2=
EXTT3=
EXTT4=
EXTT5=
EXTT6=
EXTT7=
EXTT8=
EXTT9=
EXTT10=
EXTT11=
PLAYORDER=
